<?xml version="1.0" encoding="UTF-8" standalone="no"?>
<svg
   viewBox="0 0 24 24"
   id="grey-goose"
   version="1.1"
   sodipodi:docname="favicon.svg"
   xml:space="preserve"
   inkscape:version="1.4.2 (f4327f4, 2025-05-13)"
   xmlns:inkscape="http://www.inkscape.org/namespaces/inkscape"
   xmlns:sodipodi="http://sodipodi.sourceforge.net/DTD/sodipodi-0.dtd"
   xmlns="http://www.w3.org/2000/svg"
   xmlns:svg="http://www.w3.org/2000/svg"><defs
     id="defs1"><linearGradient
       id="swatch5"
       inkscape:swatch="solid"><stop
         style="stop-color:#000000;stop-opacity:1;"
         offset="0"
         id="stop5" /></linearGradient><linearGradient
       id="swatch1"
       inkscape:swatch="solid"><stop
         style="stop-color:#000000;stop-opacity:1;"
         offset="0"
         id="stop1" /></linearGradient></defs><sodipodi:namedview
     id="namedview1"
     pagecolor="#505050"
     bordercolor="#eeeeee"
     borderopacity="1"
     inkscape:showpageshadow="0"
     inkscape:pageopacity="0"
     inkscape:pagecheckerboard="0"
     inkscape:deskcolor="#505050"
     inkscape:zoom="24.639283"
     inkscape:cx="-8.2997545"
     inkscape:cy="14.549936"
     inkscape:window-width="2880"
     inkscape:window-height="1694"
     inkscape:window-x="-11"
     inkscape:window-y="-11"
     inkscape:window-maximized="1"
     inkscape:current-layer="grey-goose" /><rect
     style="fill:#4f4f4f;fill-opacity:1;stroke:#000000;stroke-width:0;stroke-linecap:round;stroke-linejoin:round;stroke-dasharray:none;stroke-opacity:1;paint-order:stroke fill markers"
     id="rect5"
     width="23.323961"
     height="23.46755"
     x="0.36562029"
     y="0.29922071"
     rx="2.8"
     ry="2.8" /><path
     style="fill:#ffffff;fill-opacity:1;stroke:none;stroke-width:0.0530278"
     d="m 10.178478,18.327923 c 0.176236,0.224023 0.556748,0.325456 0.653389,0.599194 0.23104,0.654435 -1.0232556,1.113357 -1.4981498,0.994152 -0.4758394,-0.11944 -0.2717048,-0.533974 0.050591,-0.694961 0.1348404,-0.06735 0.2796584,-0.111131 0.4229782,-0.155996 C 9.6264616,18.836934 9.4334116,18.564283 9.1661867,18.423811 8.8866301,18.276855 8.5236188,18.289865 8.2164513,18.261389 7.6681017,18.210553 7.1240743,18.116656 6.5725889,18.115956 6.1372308,18.115424 5.2874822,18.385039 5.1938646,17.797645 4.9890047,17.802434 4.1236467,17.982067 4.0799113,17.667195 4.046003,17.423095 4.7351256,17.168805 4.8996516,17.047061 5.7821633,16.394034 7.0089293,15.979813 8.0043403,15.506406 8.2722467,15.378993 8.9320439,15.308607 9.0865006,15.04836 9.2080921,14.843489 8.9752504,14.53284 8.8919026,14.350833 8.7689228,14.082281 8.7472363,13.75182 8.5879445,13.505337 8.3731238,13.172929 7.5344721,12.627963 8.172868,12.245702 8.2683173,12.188549 8.3768377,12.158155 8.4815905,12.123666 8.1502944,11.777494 7.1784516,11.23407 8.1103958,11.010082 7.8272956,10.767867 7.1229323,10.41506 7.0815798,10.007245 7.0591978,9.7864867 7.2990782,9.7130597 7.4754295,9.7199557 7.8383078,9.7341477 8.2051703,9.9179347 8.5346182,10.055581 7.9826943,9.2909997 7.1667178,8.7117534 6.5542213,7.9874948 6.4670847,7.8844587 6.3811587,7.7796735 6.3033293,7.6693438 6.2560056,7.6022563 6.2064426,7.5325974 6.1716792,7.4578704 5.8061109,6.6720506 6.9048832,7.1389845 7.2089227,7.2451049 6.842942,6.8094105 6.3950115,6.4096046 6.0998305,5.919576 5.7501047,5.3389966 6.2942769,5.372542 6.6779291,5.5730612 6.8364381,5.6559077 6.9933805,5.7385163 7.155895,5.8133535 6.892597,5.3553814 6.492542,4.9701886 6.2740703,4.4878261 5.922614,3.7118441 6.6970523,4.1426582 6.9954229,4.3991862 7.1356144,4.5197192 7.2754488,4.6388117 7.4210342,4.7527967 7.0757513,4.1053904 6.6796831,3.462011 6.5158531,2.7377406 6.4760806,2.5619146 6.3888439,2.0290292 6.6951525,2.0290292 c 0.2942502,0 0.5149287,0.4465725 0.6487818,0.6556885 0.4701476,0.7345024 0.9406326,1.464687 1.4483129,2.174135 0.8295614,1.1592537 1.7242618,2.2826095 2.6170858,3.3937813 0.457296,0.5691306 1.014677,1.1093167 1.371435,1.749919 0.524237,0.941332 0.678043,2.093432 1.151287,3.075614 0.144306,0.299495 0.279754,0.691461 0.525168,0.923728 0.279894,0.264898 0.678336,0.07991 0.971014,-0.06678 0.716486,-0.359116 1.204204,-1.071228 1.96203,-1.352442 0.620455,-0.230238 1.388846,-0.10444 1.898338,0.325043 0.263669,0.222263 0.418979,0.538791 0.703562,0.741196 0.36716,0.261139 0.93356,0.367347 1.214705,0.734671 0.296626,0.387549 -0.367251,0.388157 -0.581914,0.349985 -0.411875,-0.07324 -0.807697,-0.281267 -1.219633,-0.329013 -0.28576,-0.03312 -0.561109,0.09421 -0.848446,0.0734 -0.312294,-0.02262 -0.59186,-0.149687 -0.901473,-0.02836 -0.993031,0.38913 -1.588256,1.559846 -2.386253,2.224089 -1.490541,1.240713 -3.188668,1.654241 -5.090672,1.654243 m 4.242227,-4.878561 h -0.05303 L 13.55624,11.54036 12.982667,9.8964967 9.8603114,5.8663812 C 10.316031,5.8629212 10.641323,6.1954316 11.026925,6.3966596 10.498652,5.6584465 9.9543064,4.9258721 9.4523886,4.1694953 9.3957084,4.0840791 9.3376072,3.9979333 9.2936126,3.9050506 8.9142537,3.1041322 10.014183,3.7706216 10.231356,3.9284326 10.430921,4.0734502 10.624786,4.2243532 10.814814,4.3816 10.645967,3.9126902 10.355905,3.5041602 10.142308,3.0559673 10.078638,2.9223574 9.9267944,2.6367109 10.085908,2.5132138 c 0.155787,-0.1209198 0.396557,0.052358 0.516626,0.1467827 0.395599,0.3111128 0.701849,0.738171 1.000445,1.1382974 1.227387,1.6447271 2.265555,3.6105724 3.031793,5.5148948 0.295041,0.7332613 0.05784,1.3897503 -0.09447,2.1211143 -0.135635,0.651295 -0.205933,1.354362 -0.119591,2.015057 m -5.6223599,5.122002 c 0.3799512,0.06196 0.4074492,0.32914 0.1483557,0.583674 -0.2531917,0.248731 -0.7213586,0.530068 -1.0929822,0.444457 -0.3200347,-0.07372 -0.2805565,-0.363132 -0.094799,-0.561554 0.2631634,-0.281104 0.6421923,-0.531352 1.0394205,-0.466577"
     id="path5"
     sodipodi:nodetypes="cssscscscsssssssccsscssscsscsscsssssssccsscsccscccccccccssscssccscccsssc" /></svg>
